<!DOCTYPE svg PUBLIC "-//W3C//DTD SVG 1.1//EN" "http://www.w3.org/Graphics/SVG/1.1/DTD/svg11.dtd">
<!-- Uploaded to: SVG Repo, www.svgrepo.com, Transformed by: SVG Repo Mixer Tools -->
<svg width="800px" height="800px" viewBox="0 0 64.00 64.00" data-name="Layer 1" id="Layer_1" xmlns="http://www.w3.org/2000/svg" fill="#711def" stroke="#711def" stroke-width="0.44800000000000006">
<g id="SVGRepo_bgCarrier" stroke-width="0"/>
<g id="SVGRepo_tracerCarrier" stroke-linecap="round" stroke-linejoin="round"/>
<g id="SVGRepo_iconCarrier">
<defs>
<style>.cls-1{fill:#711def;}</style>
</defs>
<title/>
<path class="cls-1" d="M18,6.5A1.5,1.5,0,1,0,16.5,5,1.5,1.5,0,0,0,18,6.5Zm0-2a.5.5,0,1,1-.5.5A.5.5,0,0,1,18,4.5Z"/>
<circle class="cls-1" cx="22" cy="5" r="1"/>
<circle class="cls-1" cx="58" cy="8" r="1"/>
<circle class="cls-1" cx="14" cy="5" r="1"/>
<path class="cls-1" d="M42,11a21.9,21.9,0,0,0-7,1.15V5a5,5,0,0,0-5-5H6A5,5,0,0,0,1,5V9a1,1,0,0,0-1,1v4a1,1,0,0,0,1,1v2a1,1,0,0,0-1,1v4a1,1,0,0,0,1,1V59a5,5,0,0,0,5,5H30a5,5,0,0,0,5-5V53.85A22,22,0,1,0,42,11ZM59.64,23.59a19.82,19.82,0,0,0-4.57-3.66,19.82,19.82,0,0,0-3.66-4.57A20.14,20.14,0,0,1,59.64,23.59ZM30.94,49.65l-.17-.11a20.15,20.15,0,0,1-6.41-7.13,19.82,19.82,0,0,0,4.57,3.66,19.67,19.67,0,0,0,3.65,4.56l-.34-.19C31.8,50.19,31.36,49.93,30.94,49.65Zm0-33.3c.42-.28.86-.54,1.3-.79l.34-.19a19.67,19.67,0,0,0-3.65,4.56,19.82,19.82,0,0,0-4.57,3.66,20.15,20.15,0,0,1,6.41-7.13ZM44,52.9c-.48.05-1,.06-1.47.08v-3.5a27.1,27.1,0,0,0,4.75-.5A9.5,9.5,0,0,1,44,52.9ZM40,13.1c.48,0,1-.06,1.46-.07v3.49a27.09,27.09,0,0,0-4.74.5A9.5,9.5,0,0,1,40,13.1Zm3.92,0A9.5,9.5,0,0,1,47.24,17a27.09,27.09,0,0,0-4.74-.5V13C43,13,43.48,13.05,44,13.1ZM40,52.9A9.5,9.5,0,0,1,36.76,49a27,27,0,0,0,4.73.5V53C41,53,40.52,53,40,52.9Zm-3.81-5a29.71,29.71,0,0,1-1.85-6,48,48,0,0,0,7.11.59v6A25.67,25.67,0,0,1,36.23,47.86Zm5.26-6.37a45.68,45.68,0,0,1-7.32-.66,45.81,45.81,0,0,1-.66-7.33h8Zm-15-9a25.68,25.68,0,0,1,.62-5.27,29.71,29.71,0,0,1,6-1.85,48.25,48.25,0,0,0-.59,7.12Zm-1,0H22c0-.45,0-.9.06-1.34,0-.05,0-.09,0-.14A9.57,9.57,0,0,1,26,27.76,27.09,27.09,0,0,0,25.52,32.5Zm-3.43,2.34c0-.44-.05-.89-.06-1.34h3.49a27.09,27.09,0,0,0,.5,4.74A9.57,9.57,0,0,1,22.11,35S22.1,34.89,22.09,34.84Zm4.43-1.34h6a48.25,48.25,0,0,0,.59,7.12,29.71,29.71,0,0,1-6-1.85A25.68,25.68,0,0,1,26.52,33.5Zm7-1a45.81,45.81,0,0,1,.66-7.33,45.7,45.7,0,0,1,7.33-.66v8Zm9-8a45.81,45.81,0,0,1,7.33.66,45.81,45.81,0,0,1,.66,7.33h-8Zm0-1v-6a25.77,25.77,0,0,1,5.27.62,29.71,29.71,0,0,1,1.85,6A48.25,48.25,0,0,0,42.5,23.51Zm-1-6v6a48.14,48.14,0,0,0-7.12.59,29.71,29.71,0,0,1,1.85-6A25.68,25.68,0,0,1,41.5,17.52Zm-8.21,6.77A31.2,31.2,0,0,0,27.46,26a24,24,0,0,1,2.19-5.31A24,24,0,0,1,35,18.46,31.2,31.2,0,0,0,33.29,24.29Zm-7,2.18a14,14,0,0,0-3.88,2.58,1.55,1.55,0,0,0,0-.21c.08-.35.18-.69.27-1A15.87,15.87,0,0,1,28,21.72,25.43,25.43,0,0,0,26.28,26.47ZM22.44,37.16a1.55,1.55,0,0,0,0-.21,14,14,0,0,0,3.88,2.58A25.43,25.43,0,0,0,28,44.28a15.87,15.87,0,0,1-5.27-6.09C22.62,37.85,22.52,37.51,22.44,37.16Zm5,2.88a31.2,31.2,0,0,0,5.83,1.67A31.2,31.2,0,0,0,35,47.54a24,24,0,0,1-5.31-2.19A24,24,0,0,1,27.46,40Zm8,8.68a14.07,14.07,0,0,0,2.58,3.89c-.42-.09-.83-.21-1.24-.32A15.87,15.87,0,0,1,30.72,47,25.43,25.43,0,0,0,35.47,48.72Zm7-.24v-6a47,47,0,0,0,7.13-.59,29.71,29.71,0,0,1-1.85,6A25.87,25.87,0,0,1,42.49,48.48Zm0-7v-8h8a45.81,45.81,0,0,1-.66,7.33A45.83,45.83,0,0,1,42.49,41.49Zm9-8h6a25.68,25.68,0,0,1-.62,5.27,29.71,29.71,0,0,1-6,1.85A48.25,48.25,0,0,0,51.49,33.5Zm7,0H62c0,.49,0,1-.07,1.46A9.5,9.5,0,0,1,58,38.24,27.09,27.09,0,0,0,58.48,33.5Zm3.49-1H58.48a27.09,27.09,0,0,0-.5-4.74A9.5,9.5,0,0,1,61.9,31C62,31.52,62,32,62,32.5Zm-4.49,0h-6a48.25,48.25,0,0,0-.59-7.12,29.71,29.71,0,0,1,6,1.85A25.68,25.68,0,0,1,57.48,32.5Zm-6.77-8.21A31.2,31.2,0,0,0,49,18.46a24,24,0,0,1,5.31,2.19A24,24,0,0,1,56.54,26,31.2,31.2,0,0,0,50.71,24.29Zm-2.18-7A14.07,14.07,0,0,0,46,13.39c.42.09.83.21,1.24.32A15.87,15.87,0,0,1,53.28,19,25.43,25.43,0,0,0,48.53,17.28ZM38.05,13.39a14.07,14.07,0,0,0-2.58,3.89A25.43,25.43,0,0,0,30.72,19a15.87,15.87,0,0,1,6.09-5.27C37.22,13.6,37.63,13.48,38.05,13.39ZM46,52.61a14.07,14.07,0,0,0,2.58-3.89A25.43,25.43,0,0,0,53.28,47a15.87,15.87,0,0,1-6.09,5.27C46.78,52.4,46.37,52.52,46,52.61ZM49,47.54a31.2,31.2,0,0,0,1.67-5.83A31.2,31.2,0,0,0,56.54,40a24,24,0,0,1-2.19,5.31A24,24,0,0,1,49,47.54Zm8.68-8A14.07,14.07,0,0,0,61.61,37c-.09.42-.21.83-.32,1.24A15.87,15.87,0,0,1,56,44.28,25.43,25.43,0,0,0,57.72,39.53Zm3.89-10.48a14.07,14.07,0,0,0-3.89-2.58A25.43,25.43,0,0,0,56,21.72a15.87,15.87,0,0,1,5.27,6.09C61.4,28.22,61.52,28.63,61.61,29.05ZM6,2H30a3,3,0,0,1,3,2.5H30a4.34,4.34,0,0,0-3.35,1.65A3.45,3.45,0,0,1,24,7.5H12A3.45,3.45,0,0,1,9.35,6.15,4.34,4.34,0,0,0,6,4.5H3.05A3,3,0,0,1,6,2ZM33,53.07V59a3,3,0,0,1-3,3H6a3,3,0,0,1-3-3V5.5H6A3.45,3.45,0,0,1,8.65,6.85,4.34,4.34,0,0,0,12,8.5H24a4.34,4.34,0,0,0,3.35-1.65A3.45,3.45,0,0,1,30,5.5h3v7.43l-.12.06c-.41.18-.81.38-1.2.59l-.24.12c-.34.19-.67.39-1,.59s-.42.26-.62.4l-.35.23a22,22,0,0,0-7.7,9.41l-.11.27c-.15.37-.29.74-.43,1.12s-.18.51-.26.77-.11.41-.17.61-.14.52-.2.78-.09.35-.12.53c-.1.43-.18.86-.24,1.3,0,.1,0,.2,0,.3-.05.38-.09.76-.13,1.15l0,.4C20,32,20,32.52,20,33s0,1,.05,1.44l0,.4c0,.39.08.77.13,1.15,0,.1,0,.2,0,.3.06.44.14.87.24,1.3,0,.18.08.35.12.53s.13.52.2.78.11.41.17.61.17.52.26.77.28.75.43,1.12l.11.27a22,22,0,0,0,7.7,9.41l.35.23c.2.14.41.27.62.4s.65.4,1,.59l.24.12c.39.21.79.41,1.2.59Zm18.41-2.43a19.82,19.82,0,0,0,3.66-4.57,19.82,19.82,0,0,0,4.57-3.66A20.14,20.14,0,0,1,51.41,50.64Z"/>
<path class="cls-1" d="M61.54,5a.49.49,0,0,0,.35-.14.51.51,0,0,0,0-.71,5.5,5.5,0,0,0-7.78,0,.5.5,0,0,0,.71.71,4.49,4.49,0,0,1,6.36,0A.5.5,0,0,0,61.54,5Z"/>
<path class="cls-1" d="M63,3.55a.47.47,0,0,0,.35-.15.48.48,0,0,0,0-.7,7.48,7.48,0,0,0-10.6,0,.49.49,0,1,0,.7.7,6.52,6.52,0,0,1,9.2,0A.47.47,0,0,0,63,3.55Z"/>
<path class="cls-1" d="M60.12,6.38a.47.47,0,0,0,.35-.15.48.48,0,0,0,0-.7,3.56,3.56,0,0,0-4.94,0,.49.49,0,1,0,.7.7,2.57,2.57,0,0,1,3.54,0A.49.49,0,0,0,60.12,6.38Z"/>
</g>
</svg>