<svg xmlns="http://www.w3.org/2000/svg" xmlns:xlink="http://www.w3.org/1999/xlink" width="800" zoomAndPan="magnify" viewBox="0 0 600 599.999999" height="800" preserveAspectRatio="xMidYMid meet" version="1.0"><defs><clipPath id="d30dbcde04"><path d="M 78.234375 52.101562 L 522.128906 52.101562 L 522.128906 556.933594 L 78.234375 556.933594 Z M 78.234375 52.101562 " clip-rule="nonzero"/></clipPath></defs><rect x="-60" width="720" fill="#ffffff" y="-60" height="719.999999" fill-opacity="1"/><rect x="-60" width="720" fill="#ffffff" y="-60" height="719.999999" fill-opacity="1"/><rect x="-60" width="720" fill="#ffffff" y="-60" height="719.999999" fill-opacity="1"/><path fill="#e6e4e2" d="M 454.816406 272.050781 L 459.234375 288.652344 C 459.234375 288.652344 465.628906 284.429688 466.316406 283.691406 C 467 282.957031 465.375 270.125 465.375 270.125 Z M 461.28125 200.457031 L 460.679688 202.050781 C 460.679688 202.050781 452.738281 219.417969 462.117188 219.632812 C 462.117188 219.632812 468.449219 220.84375 469.6875 215.574219 C 470.929688 210.308594 470.929688 210.308594 470.929688 210.308594 L 474.386719 210.460938 L 473.964844 200.457031 Z M 432.898438 490.269531 C 435.265625 491.839844 438.945312 489.480469 438.945312 485.804688 C 438.945312 482.125 438.945312 464.011719 438.945312 464.011719 L 428.433594 464.011719 C 428.433594 464.011719 430.53125 488.691406 432.898438 490.269531 Z M 386.140625 464.011719 L 386.152344 466 C 386.152344 466 384.554688 479.894531 386.773438 483.785156 C 392.101562 493.101562 406.277344 493.386719 406.277344 493.386719 L 394.222656 464.011719 Z M 488.378906 185.296875 C 488.378906 185.296875 479.089844 196.191406 480.257812 200.457031 C 481.421875 204.714844 477.871094 221.011719 477.871094 221.011719 L 479.808594 221.011719 C 499.1875 218.082031 488.378906 185.296875 488.378906 185.296875 Z M 461.589844 183.65625 C 462.332031 183.902344 463.238281 178.773438 463.789062 175.039062 C 464.476562 173.042969 464.898438 171.519531 464.898438 171.519531 C 464.898438 171.519531 459.117188 160.203125 454.839844 159.542969 C 450.566406 158.890625 444.832031 157.8125 444.023438 160.601562 C 444.023438 160.601562 443.78125 161.375 443.433594 162.621094 C 442.75 163.007812 442.308594 163.535156 442.210938 164.261719 C 442.210938 164.261719 441.789062 167.078125 441.484375 170.617188 C 440.765625 174.300781 440.34375 177.996094 441.066406 179.765625 C 441.128906 179.925781 441.226562 180.070312 441.332031 180.214844 C 441.476562 181.675781 441.753906 182.894531 442.210938 183.65625 C 444.539062 187.527344 460.425781 183.269531 461.589844 183.65625 Z M 483.953125 104.242188 C 483.953125 104.242188 489.710938 101.917969 489.34375 91.101562 C 489.34375 91.101562 486.804688 86.351562 484.441406 92.527344 C 482.082031 98.699219 479.710938 93.234375 480.300781 90.042969 C 480.890625 86.847656 479.515625 83.019531 479.515625 83.019531 C 479.515625 83.019531 474.746094 84.515625 471.003906 84.078125 C 471.003906 84.078125 469.074219 88.546875 465.527344 84.933594 C 461.984375 81.3125 453.125 86.847656 453.125 86.847656 C 453.125 86.847656 448.023438 106.839844 456.714844 109.917969 L 455.875 113.039062 C 455.875 113.039062 446.050781 126.714844 457.074219 127.429688 C 467.195312 128.082031 472.386719 124.21875 472.386719 124.21875 C 472.386719 124.21875 479.394531 125.519531 480.769531 123.8125 C 482.148438 122.113281 483.953125 104.242188 483.953125 104.242188 Z M 400.476562 76.539062 C 400.476562 76.539062 383.726562 77.925781 383.089844 95.847656 C 382.144531 122.347656 392.746094 124.5 394.128906 126.035156 C 394.128906 126.035156 393.871094 155.722656 391.113281 160.410156 C 391.113281 160.410156 403.785156 164.53125 405.992188 164.257812 C 408.199219 163.976562 414.269531 162.601562 413.996094 159.566406 C 413.722656 156.53125 406.820312 154.324219 407.101562 150.738281 C 407.375 147.152344 420.632812 123.597656 421.46875 120.003906 C 422.292969 116.414062 423.082031 99.277344 423.082031 99.277344 C 423.082031 99.277344 422.554688 73.503906 400.476562 76.539062 Z M 375.226562 175.785156 C 375.226562 175.785156 371.726562 175.496094 369.683594 174.621094 C 367.644531 173.75 371.140625 166.753906 370.558594 160.632812 C 369.980469 154.511719 360.351562 155.964844 359.1875 156.257812 C 358.019531 156.550781 332.355469 188.90625 325.648438 208.4375 C 318.9375 227.960938 365.3125 251.859375 365.3125 251.859375 L 359.261719 273.578125 L 366.847656 286.960938 C 370.515625 286.960938 375.335938 258.570312 375.226562 251.859375 C 375.117188 244.96875 344.054688 208.070312 342.855469 206.683594 C 355.6875 199.6875 375.226562 175.785156 375.226562 175.785156 Z M 331.910156 116.050781 L 330.257812 102.105469 C 332.863281 99.746094 333.800781 88.398438 333.800781 88.398438 C 338.769531 89.34375 339.953125 82.488281 339.007812 75.398438 C 338.0625 68.3125 333.800781 72.5625 333.800781 72.5625 C 333.800781 72.5625 332.863281 68.546875 331.910156 62.40625 C 330.964844 56.261719 326.949219 57.671875 319.613281 58.148438 C 312.285156 58.617188 314.175781 50.816406 303.0625 52.472656 C 291.949219 54.132812 296.558594 71.867188 296.679688 72.5625 C 297.238281 75.730469 295.875 76.515625 295.875 76.515625 C 290.644531 73.792969 290.316406 82.609375 291.515625 90.238281 C 292.714844 97.855469 299.785156 95.796875 299.785156 95.796875 C 300.679688 100.125 305.648438 103.59375 305.648438 103.59375 C 305.648438 103.59375 305.191406 110.847656 305.191406 117.472656 C 305.191406 124.089844 313.707031 125.976562 313.707031 125.976562 C 332.863281 126.921875 331.910156 116.050781 331.910156 116.050781 Z M 213.441406 490.546875 C 213.441406 490.546875 218.804688 492.261719 218.804688 490.546875 C 218.804688 488.832031 227.03125 447.023438 227.03125 444.164062 C 227.03125 444.164062 214.515625 443.277344 208.082031 440.679688 C 208.082031 440.679688 212.730469 484.402344 213.441406 490.546875 Z M 184.894531 490.546875 L 191.066406 490.546875 L 201.355469 440.679688 C 201.355469 440.679688 184.652344 442.734375 182.59375 444.785156 Z M 182.59375 349.550781 C 179.433594 348.460938 177.585938 343.019531 174.339844 342.367188 C 171.515625 347.835938 169.359375 359.632812 168.441406 365.722656 C 167.011719 375.1875 166.832031 384.722656 165.617188 394.183594 L 153.96875 410.835938 C 153.96875 410.835938 157.828125 412.820312 161.351562 411.394531 C 164.878906 409.96875 167.828125 406.90625 170.417969 403.035156 L 175.949219 387.171875 L 182.59375 367.257812 C 182.59375 367.257812 182.59375 349.550781 182.59375 349.550781 Z M 250.996094 288.652344 C 250.996094 288.652344 247.804688 300.867188 244.683594 309.539062 C 243.121094 313.871094 243.902344 317.683594 245.074219 320.417969 C 239.605469 314.058594 230.636719 311.832031 230.636719 311.832031 L 230.800781 337.800781 C 230.800781 337.800781 242.253906 352.191406 247.453125 350.804688 C 252.660156 349.414062 258.90625 324.792969 258.90625 324.792969 L 264.457031 319.203125 L 259.945312 309.1875 L 262.238281 307.109375 L 265.84375 313.699219 L 273.480469 313.699219 L 264.457031 285.953125 Z M 199.375 318.554688 L 196.175781 311 L 197.054688 306.054688 C 191.730469 305.375 187.453125 294.132812 187.453125 294.132812 C 185.125 274.953125 198.214844 273.207031 198.214844 273.207031 C 210.722656 272.042969 214.503906 281.636719 217.703125 280.472656 C 220.902344 279.3125 220.902344 292.101562 220.902344 292.101562 C 220.902344 292.101562 215.375 296.460938 215.375 300.824219 C 215.375 305.183594 217.992188 308.960938 217.992188 308.960938 C 210.140625 322.917969 199.375 318.554688 199.375 318.554688 " fill-opacity="1" fill-rule="nonzero"/><g clip-path="url(#d30dbcde04)"><path fill="#efd010" d="M 217.96875 307.917969 C 217.96875 307.917969 218.023438 307.933594 218.128906 307.960938 C 218.074219 307.886719 217.96875 307.917969 217.96875 307.917969 Z M 230.800781 329.050781 C 230.800781 329.050781 231.355469 313.007812 231.355469 312.113281 C 231.355469 311.277344 219.640625 308.335938 218.128906 307.960938 C 218.277344 308.148438 218.105469 309.09375 214.898438 313.425781 C 210.457031 319.421875 194.675781 317.289062 194.675781 317.289062 C 186.183594 315.375 182.59375 324.792969 182.59375 324.792969 L 182.59375 367.257812 C 182.59375 367.257812 180.632812 391.652344 180.632812 398.886719 C 180.632812 406.117188 175.003906 416.164062 170.988281 430.628906 C 166.964844 445.085938 178.21875 445.894531 178.21875 445.894531 C 199.925781 439.867188 210.78125 444.6875 227.03125 444.164062 C 243.277344 443.640625 238.515625 381.210938 234.097656 369.558594 C 229.671875 357.90625 230.800781 329.050781 230.800781 329.050781 Z M 521.941406 108.183594 C 515.230469 103.402344 508.96875 98.019531 503.238281 92.105469 C 502.390625 91.230469 498.695312 92.648438 499.578125 93.5625 C 505.3125 99.476562 511.574219 104.859375 518.285156 109.640625 C 518.992188 110.140625 520.109375 109.878906 520.851562 109.582031 C 521.152344 109.460938 522.625 108.667969 521.941406 108.183594 Z M 167.925781 415.199219 C 160.320312 425.476562 149.015625 431.996094 137.003906 435.882812 C 130.976562 437.832031 124.757812 439.207031 118.488281 440.132812 C 111.082031 441.21875 103.179688 441.894531 95.972656 439.367188 C 89.429688 437.066406 83.683594 431.972656 82.179688 425.019531 C 81.777344 423.140625 77.855469 424.160156 78.269531 426.0625 C 79.671875 432.585938 84.523438 437.621094 90.328125 440.605469 C 97.417969 444.25 105.738281 444.492188 113.515625 443.695312 C 127.398438 442.257812 141.683594 438.726562 153.820312 431.664062 C 160.554688 427.746094 166.578125 422.710938 171.222656 416.429688 C 172.714844 414.417969 169.039062 413.695312 167.925781 415.199219 Z M 115.238281 419.808594 C 120.839844 419.949219 126.46875 419.0625 131.761719 417.207031 C 132.554688 416.933594 133.605469 416.257812 133.335938 415.257812 C 133.089844 414.332031 131.785156 414.074219 130.992188 414.347656 C 126.007812 416.089844 120.816406 416.902344 115.539062 416.777344 C 114.65625 416.75 113.484375 417.476562 113.394531 418.417969 C 113.304688 419.472656 114.414062 419.789062 115.238281 419.808594 Z M 496.835938 63.730469 C 497.359375 63.671875 497.878906 63.5625 498.363281 63.382812 C 498.734375 63.246094 499.179688 63.097656 499.464844 62.8125 C 502.78125 59.5 506.097656 56.191406 509.414062 52.875 C 510.015625 52.277344 508.875 52.261719 508.511719 52.300781 C 507.988281 52.359375 507.472656 52.46875 506.984375 52.648438 C 506.617188 52.785156 506.167969 52.933594 505.882812 53.21875 C 502.566406 56.53125 499.25 59.839844 495.933594 63.15625 C 495.332031 63.757812 496.472656 63.765625 496.835938 63.730469 Z M 150.457031 444.460938 C 149.65625 443.921875 148.410156 444.378906 147.675781 444.78125 C 138.480469 449.769531 128.46875 453.277344 118.171875 455.128906 C 117.4375 455.261719 116.070312 455.621094 115.972656 456.546875 C 115.871094 457.425781 117.046875 457.65625 117.703125 457.539062 C 129.089844 455.492188 139.988281 451.671875 150.164062 446.160156 C 150.839844 445.792969 151.183594 444.9375 150.457031 444.460938 Z M 501.003906 76.648438 C 500.40625 77.230469 500.570312 77.953125 501.40625 78.148438 C 506.621094 79.355469 512.023438 79.625 517.332031 78.949219 C 518.089844 78.847656 519.382812 78.449219 519.539062 77.5625 C 519.710938 76.667969 518.394531 76.546875 517.824219 76.621094 C 513.125 77.222656 508.390625 76.976562 503.773438 75.902344 C 502.855469 75.691406 501.683594 75.988281 501.003906 76.648438 Z M 456.378906 526.722656 C 458.125 525.238281 459.835938 523.714844 461.488281 522.121094 C 463.328125 520.347656 465.34375 518.542969 466.910156 516.523438 C 467.609375 515.621094 466.902344 514.734375 466.203125 513.9375 C 465.65625 513.300781 464.984375 512.757812 464.25 512.359375 C 462.722656 511.523438 460.816406 511.144531 459.097656 511.472656 C 454.890625 512.269531 453.472656 517.386719 454.027344 521.066406 C 454.34375 523.164062 455.179688 525.082031 456.378906 526.722656 Z M 498.230469 404.042969 C 509.074219 424.042969 512.902344 447.519531 509.984375 470.015625 C 508.515625 481.351562 505.304688 492.46875 500.355469 502.78125 C 497.929688 507.832031 495.085938 512.695312 491.859375 517.277344 C 488.34375 522.257812 484.269531 526.929688 479.023438 530.136719 C 472.132812 534.351562 461.511719 535.75 455.078125 530.675781 C 446.304688 537.445312 436.601562 543 426.363281 547.234375 C 405.101562 556.023438 381.425781 559.144531 358.679688 555.40625 C 357.851562 555.269531 357.796875 554.773438 358.375 554.257812 C 359.023438 553.667969 360.285156 553.375 361.140625 553.519531 C 363.707031 553.941406 366.28125 554.285156 368.871094 554.53125 C 389.53125 556.519531 410.628906 552.664062 429.433594 543.957031 C 437.992188 540 446.066406 535.007812 453.441406 529.140625 C 452.433594 528.007812 451.566406 526.679688 450.929688 525.085938 C 449.234375 520.871094 449.734375 515.636719 453.269531 512.5 C 456.476562 509.65625 461.492188 508.765625 465.570312 509.910156 C 467.414062 510.425781 469.171875 511.464844 470.296875 513.039062 C 470.8125 513.761719 471.542969 514.800781 471.203125 515.660156 C 470.824219 516.621094 469.277344 517.789062 468.570312 518.53125 C 465.214844 522.058594 461.632812 525.359375 457.871094 528.449219 C 459.222656 529.734375 460.851562 530.75 462.699219 531.359375 C 474.171875 535.15625 483.4375 524.457031 489.148438 516.066406 C 500.824219 498.929688 506.8125 478.101562 507.007812 457.429688 C 507.207031 436.707031 501.664062 415.847656 490.34375 398.414062 C 489.597656 397.261719 493.40625 396.046875 494.003906 396.964844 C 495.5 399.273438 496.921875 401.625 498.230469 404.042969 Z M 371.578125 272.050781 C 371.578125 272.050781 373.472656 263.179688 375.226562 251.859375 C 376.972656 240.546875 387.167969 221.011719 387.167969 221.011719 C 379.894531 207.210938 378.320312 178.546875 378.320312 178.546875 C 386.652344 175.183594 391.796875 155.898438 391.796875 155.898438 C 391.796875 155.898438 397.960938 161.296875 402.007812 162.671875 C 410.695312 165.644531 413.996094 159.566406 413.996094 159.566406 C 413.996094 159.566406 409.804688 170.183594 417.480469 173.433594 C 425.164062 176.6875 435.074219 149.269531 435.074219 149.269531 C 435.074219 149.269531 443.601562 142.976562 441.175781 155.898438 C 438.753906 168.828125 433.246094 189.167969 433.246094 189.167969 L 441.175781 191.992188 C 430.523438 210.171875 436.882812 241.679688 436.882812 241.679688 L 449.816406 268.339844 C 407.78125 286.925781 371.578125 272.050781 371.578125 272.050781 " fill-opacity="1" fill-rule="nonzero"/></g><path fill="#2d0f41" d="M 387.167969 221.011719 L 371.578125 194.519531 C 371.578125 194.519531 375.597656 249.902344 375.226562 251.859375 C 374.851562 253.824219 342.855469 206.683594 342.855469 206.683594 L 372.578125 178.933594 L 378.320312 178.546875 Z M 365.3125 251.859375 L 359.261719 273.578125 C 301.191406 295.742188 277.3125 280.1875 277.3125 280.1875 L 273.480469 253.988281 L 264.457031 285.953125 L 250.996094 288.652344 C 250.996094 288.652344 251.714844 169.703125 255.765625 147.453125 C 255.945312 146.453125 256.207031 145.460938 256.53125 144.496094 C 259.085938 136.804688 265.253906 130.664062 271.421875 125.691406 C 278.394531 120.074219 286.246094 115.28125 294.308594 111.390625 C 296.402344 110.378906 298.53125 109.429688 300.6875 108.546875 C 300.921875 108.453125 305.460938 107.027344 305.453125 107.359375 C 305.441406 107.625 305.4375 107.886719 305.433594 108.152344 C 305.394531 110.636719 305.4375 113.128906 305.664062 115.601562 C 305.78125 116.90625 305.933594 118.230469 306.292969 119.496094 C 306.753906 121.121094 307.882812 122.144531 309.3125 122.996094 C 312.539062 124.90625 316.371094 125.570312 320.078125 125.285156 C 323.636719 125.011719 327.371094 124.023438 329.832031 121.277344 C 330.574219 120.441406 331.1875 119.464844 331.566406 118.40625 C 331.679688 118.089844 332.015625 117.3125 331.84375 116.964844 C 331.625 116.527344 330.636719 105.339844 330.636719 105.339844 L 343.335938 108.257812 C 356.023438 111.113281 375.226562 128.894531 375.226562 128.894531 C 375.226562 128.894531 364.160156 142.398438 361.457031 145.59375 C 358.753906 148.785156 360.230469 155.898438 360.230469 155.898438 L 359.1875 156.257812 C 359.1875 156.257812 320.253906 204.773438 326.710938 219.453125 C 333.167969 234.132812 365.3125 251.859375 365.3125 251.859375 Z M 463.789062 175.039062 C 462.269531 179.734375 460.175781 184.09375 459.429688 183.84375 C 458.695312 183.601562 459.644531 183.835938 458.921875 183.949219 C 457.113281 184.246094 455.300781 184.566406 453.480469 184.816406 C 450.511719 185.21875 444.679688 186.453125 442.40625 183.824219 C 441.820312 183.152344 441.550781 182.273438 441.355469 181.40625 C 440.242188 176.488281 441.113281 171.363281 441.984375 166.40625 C 442.226562 165.039062 442.101562 163.375 443.433594 162.621094 C 443.78125 161.375 444.023438 160.601562 444.023438 160.601562 C 444.832031 157.8125 450.566406 158.890625 454.839844 159.542969 C 459.117188 160.203125 464.898438 171.519531 464.898438 171.519531 C 464.898438 171.519531 464.476562 173.042969 463.789062 175.039062 Z M 494.714844 121.554688 C 491.742188 113.234375 483.378906 109.414062 483.378906 109.414062 C 483.34375 111.132812 479.929688 116.636719 479.5625 117.261719 C 476.890625 121.773438 472.765625 124.4375 467.527344 124.984375 C 463.074219 125.460938 458.164062 124.015625 456.527344 119.429688 C 455.800781 117.402344 455.808594 115.191406 455.828125 113.039062 C 454.785156 113.390625 442.933594 116.742188 442.929688 117.40625 C 442.929688 117.40625 442.789062 134.367188 442.789062 134.367188 C 442.722656 137.960938 441.140625 141.597656 440.160156 145.015625 C 439.042969 148.878906 437.910156 152.738281 436.746094 156.585938 C 434.058594 165.503906 428.425781 173.484375 430.394531 183.195312 C 430.792969 185.136719 431.414062 188.109375 432.777344 189.628906 C 433.980469 190.972656 436.207031 191.164062 437.878906 191.175781 C 442.226562 191.199219 458.105469 192.09375 458.105469 192.09375 L 455.695312 198.3125 C 455.695312 198.3125 456.992188 199.613281 462.179688 200.648438 C 467.367188 201.6875 481.355469 199.539062 481.355469 199.539062 L 488.378906 185.296875 C 504.203125 168.648438 497.6875 129.882812 494.714844 121.554688 " fill-opacity="1" fill-rule="nonzero"/><path fill="#0c0c0c" d="M 458.667969 286.128906 C 458.667969 286.128906 441.25 305.257812 450.402344 301.53125 C 459.546875 297.804688 467.683594 290.285156 467.683594 290.285156 L 466.316406 283.691406 Z M 450.195312 81.863281 C 450.195312 81.863281 450.191406 82.089844 450.195312 82.453125 C 450.242188 84.226562 450.679688 89.300781 454.402344 88.027344 C 458.886719 86.484375 462.8125 84.382812 464.355469 86.347656 C 465.898438 88.304688 470.65625 87.914062 471.785156 86.90625 C 472.914062 85.902344 479.214844 83.125 479.074219 87.1875 C 478.933594 91.25 480.515625 97.636719 480.8125 97.566406 C 481.109375 97.496094 487.640625 89.074219 488.964844 91.144531 C 490.285156 93.210938 489.34375 91.742188 489.34375 91.742188 L 489.269531 94.515625 C 489.269531 94.515625 493.453125 86.058594 490.492188 77.570312 C 487.523438 69.089844 473.667969 69.988281 462.085938 71.203125 C 450.507812 72.410156 450.191406 82.089844 450.191406 82.089844 M 394.128906 126.035156 C 385.3125 117.417969 384.921875 112.410156 383.789062 100.875 C 382.667969 89.339844 397.917969 70.4375 412.417969 78.894531 C 429.984375 89.140625 419.683594 122.109375 418.558594 123.070312 C 417.101562 124.304688 396.339844 143.023438 404.980469 155.898438 C 407.234375 159.253906 411.386719 164.339844 410.695312 172.492188 C 410.011719 180.640625 421.292969 182.097656 428.367188 173.433594 C 435.441406 164.769531 433.539062 163.753906 440.238281 154.441406 C 446.933594 145.128906 442.84375 110.199219 438.765625 86.140625 C 434.6875 62.082031 413.136719 60.828125 413.136719 60.828125 C 358.667969 57.742188 376.4375 116.019531 377.023438 120.289062 C 377.601562 124.558594 367.988281 132.902344 367.988281 132.902344 C 351.097656 150.078125 356.632812 159.101562 359.253906 160.265625 C 361.875 161.429688 368.285156 161.722656 366.242188 168.761719 C 364.203125 175.804688 368.574219 178.316406 368.574219 178.316406 C 391.289062 183.429688 395.050781 158.519531 395.050781 158.519531 C 396.648438 152.828125 394.128906 126.035156 394.128906 126.035156 Z M 426.925781 465.328125 C 426.925781 465.328125 426.152344 496.148438 428.433594 499.207031 C 430.71875 502.269531 441.425781 502.390625 442.023438 499.207031 C 442.617188 496.027344 440.273438 464.011719 440.273438 464.011719 L 438.398438 464.285156 C 438.398438 464.285156 440.496094 488.953125 434.789062 488.96875 C 434.789062 488.96875 431.761719 490.257812 430.6875 482.726562 C 429.609375 475.199219 428.546875 465.304688 428.546875 465.304688 Z M 384.609375 464.613281 L 382.777344 493.039062 L 384.554688 493.039062 L 386.140625 487.191406 C 386.140625 487.191406 391.664062 497.191406 399.207031 500.375 C 406.757812 503.550781 412.765625 502.734375 410.101562 497.285156 C 408.351562 493.710938 403.894531 487.058594 404.804688 490.027344 C 405.726562 493.039062 397.433594 490.808594 395.84375 489.832031 C 393.980469 488.679688 392.308594 487.191406 390.980469 485.425781 C 388.558594 482.191406 387.179688 478.230469 386.550781 474.238281 C 386.28125 472.515625 386.152344 470.769531 386.152344 469.027344 L 386.140625 464.832031 Z M 296.019531 69.054688 C 294.285156 58.066406 299.34375 55.667969 304.644531 53.800781 C 309.945312 51.925781 313.105469 55.941406 315.121094 57.53125 C 317.144531 59.113281 329.125 58.050781 330.40625 58.855469 C 331.5625 59.578125 331.671875 63.125 331.859375 64.273438 C 332.339844 67.238281 332.65625 70.226562 333.003906 73.207031 C 333.035156 73.464844 333.074219 73.734375 333.210938 73.957031 C 333.675781 74.710938 334.660156 74.664062 334.988281 74.058594 C 335.152344 73.757812 335.132812 73.164062 335.183594 72.828125 C 335.761719 69.058594 336.214844 65.265625 336.472656 61.457031 C 336.730469 57.683594 337.132812 53.335938 335.898438 49.683594 C 333.722656 43.230469 303.503906 44.628906 294.410156 49.683594 C 285.3125 54.738281 294.390625 77.160156 295.117188 77.449219 C 299.882812 79.371094 296.019531 69.054688 296.019531 69.054688 Z M 355.222656 482.085938 L 355.238281 488.472656 C 355.238281 488.472656 385.722656 507.953125 386.773438 505.472656 C 387.828125 502.984375 365.550781 480.886719 365.550781 480.886719 Z M 294.269531 482.675781 C 294.269531 482.675781 268.585938 503.570312 269.261719 506.183594 C 269.9375 508.796875 304.628906 491.734375 304.628906 491.734375 L 303.480469 483.21875 Z M 213.441406 490.546875 L 213.441406 494.289062 C 213.441406 494.289062 236.339844 500.75 234.058594 497.832031 C 231.785156 494.90625 218.804688 490.546875 218.804688 490.546875 Z M 184.894531 490.546875 C 184.894531 490.546875 172.398438 494.90625 170.117188 497.832031 C 167.839844 500.75 191.101562 494.421875 191.101562 494.421875 L 191.066406 490.546875 Z M 199.375 318.554688 C 199.375 318.554688 199.464844 318.789062 199.597656 319.203125 C 201.53125 325.253906 202.207031 331.359375 198.074219 336.597656 C 195.988281 339.234375 193.441406 341.664062 192.378906 344.851562 C 191.339844 347.964844 191.835938 351.503906 190.378906 354.445312 C 188.90625 357.425781 185.386719 359.257812 182.09375 358.746094 C 177.296875 358.007812 174.222656 353.03125 173.429688 348.242188 C 172.269531 341.203125 174.566406 334.121094 176.109375 327.15625 C 176.800781 324.027344 177.332031 320.703125 176.289062 317.675781 C 175.363281 314.984375 173.308594 312.867188 171.722656 310.503906 C 166.441406 302.628906 166.636719 291.894531 170.703125 283.328125 C 174.765625 274.757812 182.21875 268.164062 190.433594 263.421875 C 198.082031 259 207.429688 255.964844 215.710938 259.050781 C 220.675781 260.90625 224.703125 264.820312 227.355469 269.40625 C 230.011719 273.992188 231.378906 279.214844 232.09375 284.464844 C 233.316406 293.457031 232.671875 302.703125 230.207031 311.441406 C 226.9375 310.851562 223.667969 310.261719 220.402344 309.667969 C 219.472656 309.503906 218.5 309.320312 217.773438 308.726562 C 216.894531 308.011719 216.535156 306.867188 216.222656 305.785156 C 215.394531 302.882812 214.636719 299.632812 216.050781 296.960938 C 217.105469 294.96875 219.238281 293.621094 219.996094 291.496094 C 220.84375 289.082031 219.667969 286.441406 218.21875 284.335938 C 216.214844 281.417969 213.632812 278.894531 210.671875 276.953125 C 207.664062 274.988281 204.058594 273.597656 200.515625 274.191406 C 195.6875 275.011719 192.148438 279.3125 190.273438 283.832031 C 188.796875 287.390625 188.0625 291.347656 188.796875 295.125 C 189.535156 298.902344 191.882812 302.472656 195.363281 304.125 C 196.171875 304.503906 197.085938 304.832031 197.539062 305.59375 C 197.84375 306.113281 197.882812 306.734375 197.914062 307.328125 C 198.121094 311.152344 198.03125 315.167969 199.464844 318.789062 " fill-opacity="1" fill-rule="nonzero"/><path fill="#552177" d="M 477.871094 221.011719 C 477.871094 221.011719 481.941406 207.75 481.355469 199.539062 L 473.964844 200.457031 L 474.386719 210.328125 L 470.929688 210.308594 C 470.929688 210.308594 470.929688 210.308594 469.6875 215.574219 C 468.449219 220.84375 462.117188 219.632812 462.117188 219.632812 C 454.921875 215.6875 461.28125 200.457031 461.28125 200.457031 L 455.695312 198.3125 L 458.105469 192.09375 L 437.878906 191.175781 C 437.878906 191.175781 426.992188 221.285156 436.882812 241.679688 C 442.960938 254.207031 447.015625 263.363281 449.25 268.578125 C 444.308594 270.597656 406.796875 285.011719 371.578125 272.050781 C 371.578125 272.050781 370.0625 275.402344 368.753906 283.691406 C 368.753906 283.691406 366.847656 284.539062 363.410156 280.1875 L 359.261719 273.578125 C 359.261719 273.578125 309.9375 287.410156 277.3125 280.1875 C 277.3125 280.1875 278.644531 412.234375 294.269531 482.675781 L 303.480469 483.21875 L 326.617188 313.15625 L 355.222656 482.085938 L 365.550781 480.886719 L 371.714844 373.351562 C 372.703125 380.386719 373.863281 387.847656 375.226562 395.789062 L 380.582031 445.679688 C 380.582031 445.679688 377.972656 461.6875 382.382812 464.011719 C 386.789062 466.328125 400.035156 464.011719 400.035156 464.011719 C 400.035156 464.011719 401.835938 465.488281 400.035156 447.117188 C 398.238281 428.75 415.53125 308.820312 415.53125 308.820312 L 423.164062 445.894531 C 423.164062 445.894531 419.855469 463.148438 421.65625 465.039062 C 423.457031 466.929688 441.835938 464.011719 441.835938 464.011719 C 441.835938 464.011719 469.5625 303.050781 468.578125 296.671875 C 468.226562 294.355469 466.484375 282.75 466.484375 282.75 L 459.234375 288.652344 L 455.03125 272.851562 L 477.871094 268.339844 C 477.871094 268.339844 468.46875 253.449219 469.566406 247.335938 C 470.660156 241.222656 477.871094 221.011719 477.871094 221.011719 Z M 460.347656 186.160156 C 461.363281 186.316406 462.371094 185.800781 462.898438 184.957031 C 469.980469 173.617188 472.421875 159.765625 469.746094 146.679688 C 469.375 144.851562 465.449219 145.859375 465.828125 147.730469 C 468.410156 160.347656 465.871094 173.902344 459.144531 184.5 C 458.609375 185.34375 459.621094 186.050781 460.347656 186.160156 Z M 211.417969 351.269531 C 211.726562 351.179688 211.59375 351.195312 211.417969 351.269531 Z M 211.28125 356.375 C 211.203125 355.15625 210.945312 353.664062 210.363281 352.554688 C 210.335938 352.597656 210.3125 352.628906 210.289062 352.671875 C 209.359375 354.332031 208.324219 355.847656 207.078125 357.21875 C 208.277344 356.855469 209.789062 356.871094 209.605469 357.535156 C 209.441406 358.144531 209.671875 358.753906 210.121094 359.183594 C 210.230469 359.292969 210.347656 359.375 210.46875 359.445312 C 210.695312 359.113281 210.917969 358.71875 210.957031 358.640625 C 211.25 357.917969 211.332031 357.152344 211.28125 356.375 Z M 210.167969 359.835938 C 210.066406 359.871094 209.988281 359.894531 210.015625 359.921875 C 210.042969 359.949219 210.101562 359.90625 210.167969 359.835938 Z M 202.015625 358.804688 C 201.472656 358.046875 201.332031 357.121094 201.5625 356.257812 C 201.214844 356.007812 200.867188 355.757812 200.523438 355.511719 C 200.484375 356.402344 200.449219 357.300781 200.417969 358.195312 C 200.390625 358.84375 200.449219 359.324219 200.671875 359.859375 C 200.816406 359.757812 200.972656 359.664062 201.117188 359.558594 C 201.4375 359.324219 201.714844 359.054688 202.015625 358.804688 Z M 214.433594 351.851562 C 215.546875 354.671875 215.765625 358.402344 212.972656 360.296875 C 211.5 361.292969 209.234375 361.941406 207.507812 361.246094 C 206.402344 360.808594 205.574219 359.816406 205.636719 358.65625 C 205.542969 358.746094 205.457031 358.839844 205.359375 358.925781 C 204.3125 359.816406 203.152344 360.671875 201.917969 361.277344 C 200.621094 361.910156 198.054688 362.753906 196.953125 361.375 C 196.171875 360.390625 196.515625 358.804688 196.5625 357.664062 C 196.625 356.03125 196.695312 354.402344 196.757812 352.773438 C 196.785156 352.082031 197.707031 351.769531 198.257812 351.585938 C 198.890625 351.375 199.941406 351.113281 200.546875 351.542969 C 201.621094 352.292969 202.691406 353.039062 203.765625 353.785156 C 203.863281 353.851562 203.964844 353.925781 204.066406 353.996094 C 204.375 353.925781 204.683594 353.875 204.976562 353.863281 C 205.207031 353.851562 205.660156 353.910156 205.929688 354.074219 C 206.1875 353.636719 206.441406 353.199219 206.714844 352.761719 C 207.671875 351.234375 209.050781 350.285156 210.855469 350 C 212.507812 349.746094 213.8125 350.269531 214.433594 351.851562 Z M 282.136719 269.679688 C 281.726562 270.386719 282.492188 270.472656 283.09375 270.445312 C 301.953125 269.578125 320.808594 268.71875 339.660156 267.855469 C 340.378906 267.816406 341.875 267.574219 342.273438 266.882812 C 342.6875 266.179688 341.925781 266.09375 341.320312 266.117188 C 322.460938 266.984375 303.605469 267.847656 284.75 268.714844 C 284.035156 268.746094 282.539062 268.988281 282.136719 269.679688 Z M 282.132812 231.394531 C 281.738281 232.128906 282.476562 232.320312 283.125 232.292969 C 295.417969 231.816406 307.65625 230.507812 319.761719 228.351562 C 320.289062 228.257812 321.996094 227.890625 322.023438 227.152344 C 322.054688 226.382812 320.921875 226.453125 320.394531 226.546875 C 308.605469 228.644531 296.703125 229.9375 284.734375 230.398438 C 283.996094 230.425781 282.535156 230.664062 282.132812 231.394531 Z M 284.058594 216.402344 C 294.636719 215.371094 305.207031 214.339844 315.777344 213.304688 C 316.355469 213.25 317.929688 212.84375 318.039062 212.117188 C 318.167969 211.332031 316.847656 211.496094 316.421875 211.539062 C 305.851562 212.574219 295.273438 213.605469 284.703125 214.636719 C 284.128906 214.695312 282.550781 215.101562 282.4375 215.824219 C 282.316406 216.613281 283.636719 216.445312 284.058594 216.402344 Z M 323.230469 177.753906 C 323.320312 176.863281 322.167969 176.574219 321.484375 176.695312 C 311.289062 178.53125 301.09375 180.371094 290.902344 182.210938 C 290.148438 182.347656 288.804688 182.710938 288.707031 183.664062 C 288.617188 184.558594 289.773438 184.847656 290.460938 184.726562 C 300.65625 182.882812 310.84375 181.046875 321.039062 179.210938 C 321.792969 179.074219 323.128906 178.710938 323.230469 177.753906 Z M 287.117188 175.960938 C 299.550781 174.363281 311.988281 172.761719 324.425781 171.164062 C 325.195312 171.070312 326.515625 170.625 326.609375 169.6875 C 326.707031 168.761719 325.554688 168.496094 324.847656 168.582031 C 312.414062 170.183594 299.980469 171.78125 287.539062 173.378906 C 286.769531 173.480469 285.449219 173.917969 285.351562 174.863281 C 285.257812 175.785156 286.410156 176.054688 287.117188 175.960938 Z M 281.171875 199.65625 C 279.539062 216.789062 277.398438 233.839844 274.75 250.773438 C 274.597656 251.734375 272.167969 252.234375 272.332031 251.191406 C 273.082031 246.386719 273.796875 241.582031 274.464844 236.757812 C 276.828125 219.761719 278.667969 202.65625 280.011719 185.484375 C 280.085938 184.542969 282.519531 183.957031 282.429688 185.0625 C 282.046875 189.933594 281.632812 194.800781 281.171875 199.65625 " fill-opacity="1" fill-rule="nonzero"/></svg>