<svg xmlns="http://www.w3.org/2000/svg" viewBox="0 0 750.33 225.15"><defs><style>.cls-1{fill:#fff;}</style></defs><title>NOVAEDD JASIEL blanco</title><g id="OBJECTS"><path class="cls-1" d="M42.9,48.74V167s26,28.57,37,35.73c0,0,76-50.76,73.21-116.14,0,0-.93-30.72-27.07-49.62V52.8s36.76,35.05-.65,81.05c0,0-15.44,26.46-64.18,16.49l-.35-70.83L101,133.86h18.44V31.49S82.74,6.17,41.25,33.28c0,0-67,45.66-5.1,123.38v-25S8.86,100.1,28.76,61.81c0,0,20.16-40.95,73-26.41v67.93L61.38,48.66Z"/><polygon class="cls-1" points="167.87 152.7 180.39 152.7 180.39 141.63 167.87 130.57 167.87 152.7"/><polygon class="cls-1" points="215.28 124 167.87 81.27 167.87 99.92 227.87 152.7 227.87 81.27 215.28 81.27 215.28 124"/><path class="cls-1" d="M312.64,81.77a35.5,35.5,0,1,0,35.49,35.5A35.49,35.49,0,0,0,312.64,81.77Zm0,59.33a23.84,23.84,0,1,1,23.84-23.83A23.83,23.83,0,0,1,312.64,141.1Z"/><polygon class="cls-1" points="412.91 126.13 390.46 80.98 376.69 80.98 413.18 152.87 419.34 139.06 436.9 104.64 422.8 104.64 412.91 126.13"/><polygon class="cls-1" points="503.45 93.5 550.56 93.5 550.56 80.98 497.06 80.98 503.45 93.5"/><polygon class="cls-1" points="519.04 123.97 550.56 123.97 550.56 111.46 512.64 111.46 519.04 123.97"/><polygon class="cls-1" points="533.81 152.87 550.56 152.87 550.56 140.36 527.41 140.36 533.81 152.87"/><polygon class="cls-1" points="493.19 80.98 457.61 152.87 471.11 152.87 493.19 108.25 500.97 123.97 514.46 123.97 493.19 80.98"/><polygon class="cls-1" points="509.07 140.36 515.27 152.87 528.76 152.87 522.57 140.36 509.07 140.36"/><path class="cls-1" d="M601.11,82.2h-13v58.2L601,129.54V94.26h7.16s25.29-2,25.29,24.74-25.29,24.23-25.29,24.23H601l-12.89,11.66h13s45.77,3.68,45.77-36S601.11,82.2,601.11,82.2Z"/><path class="cls-1" d="M698.05,82.2h-13v58.2L698,129.54V94.26h7.16s25.28-2,25.28,24.74-25.28,24.23-25.28,24.23H698l-12.89,11.66h13s45.78,3.68,45.78-36S698.05,82.2,698.05,82.2Z"/></g></svg>