<?xml version="1.0" encoding="UTF-8"?>
<svg xmlns="http://www.w3.org/2000/svg" viewBox="0 0 751.33 226.15">
  <defs>
    <style>
      .cls-1 {
        fill: #fff;
      }
    </style>
  </defs>
  <g id="Capa_1" data-name="Capa 1">
    <g id="OBJECTS">
      <path class="cls-1" d="M43.4,49.24v118.26s26,28.57,37,35.73c0,0,76-50.76,73.21-116.14,0,0-.93-30.72-27.07-49.62v15.83s36.76,35.05-.65,81.05c0,0-15.44,26.46-64.18,16.49l-.35-70.83,40.14,54.35h18.44V31.99s-36.7-25.32-78.19,1.79c0,0-67,45.66-5.1,123.38v-25s-27.29-31.56-7.39-69.85c0,0,20.16-40.95,73-26.41V103.83L61.88,49.16l-18.48,.08Z"/>
      <polygon class="cls-1" points="168.37 153.2 180.89 153.2 180.89 142.13 168.37 131.07 168.37 153.2"/>
      <polygon class="cls-1" points="215.78 124.5 168.37 81.77 168.37 100.42 228.37 153.2 228.37 81.77 215.78 81.77 215.78 124.5"/>
      <path class="cls-1" d="M313.14,82.27c-19.61,0-35.5,15.88-35.51,35.49,0,19.61,15.88,35.5,35.49,35.51,19.61,0,35.5-15.88,35.51-35.49h0c0-19.61-15.88-35.5-35.48-35.51h0Zm0,59.33c-13.17,0-23.84-10.67-23.84-23.84s10.67-23.84,23.84-23.84,23.84,10.67,23.84,23.84h0c0,13.17-10.67,23.84-23.83,23.84h-.01Z"/>
      <polygon class="cls-1" points="413.41 126.63 390.96 81.48 377.19 81.48 413.68 153.37 419.84 139.56 437.4 105.14 423.3 105.14 413.41 126.63"/>
      <polygon class="cls-1" points="503.95 94 551.06 94 551.06 81.48 497.56 81.48 503.95 94"/>
      <polygon class="cls-1" points="519.54 124.47 551.06 124.47 551.06 111.96 513.14 111.96 519.54 124.47"/>
      <polygon class="cls-1" points="534.31 153.37 551.06 153.37 551.06 140.86 527.91 140.86 534.31 153.37"/>
      <polygon class="cls-1" points="493.69 81.48 458.11 153.37 471.61 153.37 493.69 108.75 501.47 124.47 514.96 124.47 493.69 81.48"/>
      <polygon class="cls-1" points="509.57 140.86 515.77 153.37 529.26 153.37 523.07 140.86 509.57 140.86"/>
      <path class="cls-1" d="M601.61,82.7h-13v58.2l12.89-10.86v-35.28h7.16s25.29-2,25.29,24.74-25.29,24.23-25.29,24.23h-7.16l-12.89,11.66h13s45.77,3.68,45.77-36-45.77-36.69-45.77-36.69Z"/>
      <path class="cls-1" d="M698.55,82.7h-13v58.2l12.95-10.86v-35.28h7.16s25.28-2,25.28,24.74-25.28,24.23-25.28,24.23h-7.16l-12.89,11.66h13s45.78,3.68,45.78-36-45.84-36.69-45.84-36.69Z"/>
    </g>
  </g>
  <g id="Capa_4" data-name="Capa 4">
    <path class="cls-1" d="M738.81,151.19c.74,0,1.55,.07,2.34,.25,.5,.11,.99,.26,1.47,.44,.35,.13,.7,.29,1.04,.46,.34,.18,.68,.37,1,.59,.36,.24,.7,.5,1.03,.78,.18,.15,.33,.32,.5,.47,.18,.17,.33,.36,.5,.54,.19,.2,.33,.42,.5,.63,.2,.25,.35,.53,.52,.8,.21,.32,.35,.67,.51,1.01,.23,.48,.37,1,.5,1.51,.28,1.05,.31,2.12,.21,3.21-.03,.32-.13,.84-.21,1.15-.12,.47-.25,.93-.45,1.37-.16,.35-.3,.7-.5,1.03-.17,.27-.32,.55-.51,.8-.16,.22-.33,.44-.51,.65-.16,.19-.32,.36-.49,.54-.14,.15-.29,.29-.45,.43-.34,.3-.7,.59-1.07,.84-.31,.21-.64,.41-.97,.58-.66,.35-1.35,.62-2.07,.83-.6,.17-1.2,.28-1.82,.34-.66,.06-1.32,.07-1.99,0-.59-.05-1.18-.15-1.75-.3-.52-.13-1.02-.31-1.51-.52-.35-.15-.68-.32-1.01-.5-.34-.19-.67-.41-.99-.64-.19-.13-.36-.28-.54-.42-.18-.14-.34-.31-.51-.46-.19-.16-.34-.36-.51-.53-.18-.18-.32-.4-.49-.59-.2-.24-.35-.5-.52-.76-.2-.3-.35-.63-.51-.95-.23-.44-.37-.91-.52-1.38-.35-1.11-.41-2.25-.33-3.41,.04-.56,.15-1.12,.31-1.67,.13-.46,.28-.91,.49-1.34,.16-.31,.3-.64,.49-.93,.17-.26,.33-.54,.53-.79,.15-.19,.29-.38,.45-.56,.18-.2,.36-.39,.54-.58,.16-.16,.32-.31,.5-.46,.32-.27,.66-.53,1.01-.77,.32-.21,.65-.41,1-.58,.81-.41,1.67-.72,2.56-.91,.7-.15,1.42-.23,2.21-.24Zm-.04,1.97c-.3,0-.69,.02-1.07,.07-.55,.07-1.09,.2-1.62,.38-.55,.19-1.08,.44-1.57,.74-.33,.2-.64,.42-.94,.67-.19,.15-.37,.32-.54,.49-.17,.17-.33,.35-.49,.52-.18,.21-.34,.44-.5,.66-.19,.26-.33,.55-.49,.83-.16,.3-.28,.61-.39,.93-.16,.49-.34,1.32-.37,1.84s-.03,1.02,.04,1.53c.06,.41,.13,.82,.27,1.21,.15,.42,.29,.84,.51,1.23,.17,.31,.33,.62,.55,.9,.15,.19,.29,.39,.45,.57,.33,.37,.68,.72,1.07,1.02,.15,.12,.31,.24,.47,.35,.33,.22,.68,.42,1.04,.6,.29,.14,.59,.27,.9,.38,.53,.18,1.06,.31,1.62,.38,.27,.03,.54,.06,.81,.07,.74,.03,1.48-.03,2.2-.2,.54-.12,1.06-.29,1.57-.52,.33-.15,.64-.31,.95-.5,.38-.23,.73-.5,1.07-.78,.17-.14,.32-.29,.47-.44,.18-.18,.33-.38,.5-.56,.19-.21,.33-.46,.5-.69,.21-.3,.36-.63,.52-.95,.21-.43,.34-.89,.46-1.35,.1-.36,.16-.73,.18-1.11,.04-.81,.01-1.61-.21-2.39-.14-.46-.26-.93-.49-1.36-.17-.32-.31-.64-.52-.93-.17-.23-.31-.47-.51-.68-.16-.18-.31-.37-.49-.54-.17-.16-.34-.32-.52-.47-.33-.27-.67-.52-1.04-.74-.32-.19-.64-.36-.98-.5-.65-.28-1.32-.46-2.01-.57-.43-.06-.85-.1-1.37-.1Z"/>
    <path class="cls-1" d="M744.4,162.04c-.06,.22-.1,.43-.2,.64-.07,.14-.12,.29-.18,.43-.08,.18-.16,.35-.28,.51-.17,.24-.32,.48-.51,.69-.14,.15-.28,.3-.43,.43-.33,.3-.69,.57-1.09,.78-.31,.17-.63,.32-.97,.43-.44,.15-.9,.24-1.37,.29-.58,.05-1.15,.02-1.72-.1-.51-.1-1-.27-1.46-.5-.37-.19-.72-.41-1.04-.67-.19-.15-.35-.32-.52-.48-.19-.18-.34-.4-.5-.6-.21-.27-.36-.58-.51-.88-.28-.56-.4-1.16-.46-1.78-.08-.79,.05-1.58,.35-2.32,.15-.36,.32-.72,.56-1.04,.15-.19,.28-.4,.45-.57,.18-.18,.35-.36,.54-.52,.31-.25,.64-.48,1-.67,.59-.31,1.21-.52,1.87-.62,.57-.08,1.14-.09,1.71-.01,.52,.07,1.01,.2,1.49,.41,.35,.15,.67,.32,.99,.53,.18,.12,.35,.26,.52,.39,.19,.15,.34,.33,.51,.49,.2,.2,.34,.43,.5,.65,.23,.31,.38,.67,.53,1.02,.07,.17,.12,.34,.18,.52,0,.03-.01,.06-.05,.06-.87,0-1.75,0-2.62,0-.05,0-.07-.02-.08-.06-.1-.2-.23-.39-.38-.56-.29-.32-.63-.58-1.03-.76-.48-.22-1-.32-1.53-.29-.33,.02-.65,.08-.96,.2-.4,.15-.74,.37-1.05,.65-.2,.19-.36,.4-.51,.63-.35,.53-.45,1.12-.41,1.74,.02,.35,.19,.87,.37,1.17,.13,.21,.27,.42,.46,.6,.3,.29,.64,.53,1.04,.69,.47,.19,.96,.27,1.47,.23,.56-.05,1.08-.22,1.55-.53,.19-.12,.34-.27,.5-.42,.22-.21,.38-.46,.51-.73,.03-.06,.07-.12,.21-.06,.59,.22,1.23,.29,1.85,.15,.76-.18,.61-.18,.7-.17Z"/>
  </g>
</svg>