<?xml version="1.0" encoding="UTF-8"?>
<svg xmlns="http://www.w3.org/2000/svg" xmlns:xlink="http://www.w3.org/1999/xlink" viewBox="0 0 750.33 225.15">
  <defs>
    <style>
      .cls-1, .cls-2 {
        fill: #65378a;
      }

      .cls-2 {
        font-family: LEMONMILK-Bold, 'LEMON MILK';
        font-size: 30px;
        letter-spacing: .25em;
      }

      .cls-3 {
        fill: url(#Degradado_sin_nombre);
      }
    </style>
    <linearGradient id="Degradado_sin_nombre" data-name="Degradado sin nombre" x1="81.54" y1="403.5" x2="81.54" y2="-162.63" gradientTransform="translate(0 228) scale(1 -1)" gradientUnits="userSpaceOnUse">
      <stop offset=".45" stop-color="#8e5a9d"/>
      <stop offset=".55" stop-color="#511b76"/>
      <stop offset=".74" stop-color="#000"/>
    </linearGradient>
  </defs>
  <g id="Capa_1" data-name="Capa 1">
    <g id="OBJECTS">
      <path class="cls-3" d="M42.9,48.74v118.26s26,28.57,37,35.73c0,0,76-50.76,73.21-116.14,0,0-.93-30.72-27.07-49.62v15.83s36.76,35.05-.65,81.05c0,0-15.44,26.46-64.18,16.49l-.35-70.83,40.14,54.35h18.44V31.49s-36.7-25.32-78.19,1.79c0,0-67,45.66-5.1,123.38v-25s-27.29-31.56-7.39-69.85c0,0,20.16-40.95,73-26.41V103.33L61.38,48.66l-18.48,.08Z"/>
      <polygon class="cls-1" points="167.87 152.7 180.39 152.7 180.39 141.63 167.87 130.57 167.87 152.7"/>
      <polygon class="cls-1" points="215.28 124 167.87 81.27 167.87 99.92 227.87 152.7 227.87 81.27 215.28 81.27 215.28 124"/>
      <path class="cls-1" d="M312.64,81.77c-19.61,0-35.5,15.88-35.51,35.49,0,19.61,15.88,35.5,35.49,35.51,19.61,0,35.5-15.88,35.51-35.49h0c0-19.61-15.88-35.5-35.48-35.51h0Zm0,59.33c-13.17,0-23.84-10.67-23.84-23.84s10.67-23.84,23.84-23.84,23.84,10.67,23.84,23.84h0c0,13.17-10.67,23.84-23.83,23.84h-.01Z"/>
      <polygon class="cls-1" points="412.91 126.13 390.46 80.98 376.69 80.98 413.18 152.87 419.34 139.06 436.9 104.64 422.8 104.64 412.91 126.13"/>
      <polygon class="cls-1" points="503.45 93.5 550.56 93.5 550.56 80.98 497.06 80.98 503.45 93.5"/>
      <polygon class="cls-1" points="519.04 123.97 550.56 123.97 550.56 111.46 512.64 111.46 519.04 123.97"/>
      <polygon class="cls-1" points="533.81 152.87 550.56 152.87 550.56 140.36 527.41 140.36 533.81 152.87"/>
      <polygon class="cls-1" points="493.19 80.98 457.61 152.87 471.11 152.87 493.19 108.25 500.97 123.97 514.46 123.97 493.19 80.98"/>
      <polygon class="cls-1" points="509.07 140.36 515.27 152.87 528.76 152.87 522.57 140.36 509.07 140.36"/>
      <path class="cls-1" d="M601.11,82.2h-13v58.2l12.89-10.86v-35.28h7.16s25.29-2,25.29,24.74-25.29,24.23-25.29,24.23h-7.16l-12.89,11.66h13s45.77,3.68,45.77-36-45.77-36.69-45.77-36.69Z"/>
      <path class="cls-1" d="M698.05,82.2h-13v58.2l12.95-10.86v-35.28h7.16s25.28-2,25.28,24.74-25.28,24.23-25.28,24.23h-7.16l-12.89,11.66h13s45.78,3.68,45.78-36-45.84-36.69-45.84-36.69Z"/>
    </g>
  </g>
  <g id="Capa_2" data-name="Capa 2">
    <text class="cls-2" transform="translate(312.63 196.15)"><tspan x="0" y="0">INICIO</tspan></text>
  </g>
</svg>